# Blender v2.76 (sub 0) OBJ File: '1x1invertedTriangle.blend'
# www.blender.org
mtllib 1x1invertedTriangle.mtl
o Cube
v 1.000000 -1.000000 -1.000000
v 1.000000 -1.000000 1.000000
v -1.000000 -1.000000 1.000000
v -1.000000 -1.000000 -1.000000
v 1.000000 1.000000 -0.999999
v 0.999999 -0.978210 1.000001
v -1.000000 1.000000 1.000000
v -1.000000 1.000000 -1.000000
vn 0.000000 -1.000000 0.000000
vn 0.575200 0.581600 0.575200
vn 1.000000 0.000000 0.000000
vn -0.000000 -0.000000 1.000000
vn -1.000000 -0.000000 -0.000000
vn 0.000000 0.000000 -1.000000
vn 0.000000 1.000000 -0.000000
usemtl Material
s off
f 4//1 1//1 3//1
f 6//2 5//2 7//2
f 1//3 5//3 6//3 2//3
f 2//4 6//4 7//4 3//4
f 4//5 3//5 8//5
f 5//6 1//6 8//6
f 3//5 7//5 8//5
f 1//6 4//6 8//6
f 1//1 2//1 3//1
f 5//7 8//7 7//7
