# Blender v2.76 (sub 0) OBJ File: '1x1Triangle.blend'
# www.blender.org
mtllib 1x1Triangle.mtl
o Cube
v 1.000000 -1.000000 -1.000000
v 1.000000 -1.000000 1.000000
v -1.000000 -1.000000 1.000000
v -1.000000 -1.000000 -1.000000
v -1.000000 1.000000 1.000000
v -1.000000 1.000000 -1.000000
vn 0.000000 -1.000000 0.000000
vn -0.000000 0.000000 1.000000
vn -1.000000 -0.000000 -0.000000
vn 0.000000 0.000000 -1.000000
vn 0.707100 0.707100 0.000000
usemtl Material
s off
f 1//1 2//1 3//1 4//1
f 2//2 5//2 3//2
f 3//3 5//3 6//3 4//3
f 1//4 4//4 6//4
f 1//5 6//5 5//5 2//5
