# Blender v2.76 (sub 0) OBJ File: '1x1triangleCorner.blend'
# www.blender.org
mtllib 1x1triangleCorner.mtl
o Cube
v 1.000000 -1.000000 -1.000000
v -1.000000 -1.000000 1.000000
v -1.000000 -1.000000 -1.000000
v 1.000000 -0.995641 -0.999999
v -1.009823 -0.996832 1.000001
v -1.000000 -0.986404 1.000000
v -1.000000 1.000000 -1.000000
vn 0.000000 -1.000000 0.000000
vn 0.579800 0.575200 0.577100
vn -1.000000 -0.000000 -0.000000
vn 0.000100 0.000100 -1.000000
vn 0.000000 0.000000 -1.000000
usemtl Material
s off
f 3//1 1//1 2//1
f 4//2 7//2 6//2 5//2
f 3//3 2//3 7//3
f 4//4 1//4 7//4
f 2//3 6//3 7//3
f 1//5 3//5 7//5
