# Blender v2.76 (sub 0) OBJ File: '400mmDouble.blend'
# www.blender.org
mtllib 400mmDouble.mtl
o Cube.005
v -1.132633 0.577551 1.193252
v -1.132633 0.977551 1.193252
v -1.132633 0.577552 -1.206748
v -1.132633 0.977551 -1.206748
v -0.732633 0.577551 1.193252
v -0.732633 0.977551 1.193252
v -0.732633 0.577552 -1.206748
v -0.732633 0.977551 -1.206748
v 1.677768 0.678374 0.312674
v 2.677769 0.678374 0.312674
v 1.677768 0.662766 0.314211
v 2.677769 0.662767 0.314211
v 1.677768 0.647759 0.318764
v 2.677769 0.647759 0.318764
v 1.677768 0.633928 0.326156
v 2.677769 0.633928 0.326156
v 1.677768 0.621805 0.336105
v 2.677769 0.621805 0.336105
v 1.677768 0.611856 0.348228
v 2.677769 0.611856 0.348228
v 1.677768 0.604463 0.362059
v 2.677769 0.604463 0.362059
v 1.677768 0.599911 0.377067
v 2.677769 0.599911 0.377067
v 1.677768 0.598374 0.392674
v 2.677769 0.598374 0.392674
v 1.677768 0.599911 0.408281
v 2.677769 0.599911 0.408281
v 1.677768 0.604463 0.423289
v 2.677769 0.604463 0.423289
v 1.677768 0.611856 0.437119
v 2.677769 0.611856 0.437119
v 1.677768 0.621805 0.449243
v 2.677769 0.621805 0.449243
v 1.677768 0.633928 0.459192
v 2.677769 0.633928 0.459192
v 1.677768 0.647759 0.466584
v 2.677769 0.647759 0.466584
v 1.677768 0.662766 0.471137
v 2.677769 0.662767 0.471137
v 1.677768 0.678374 0.472674
v 2.677769 0.678374 0.472674
v 1.677768 0.693981 0.471137
v 2.677769 0.693981 0.471137
v 1.677768 0.708988 0.466584
v 2.677769 0.708988 0.466584
v 1.677768 0.722819 0.459191
v 2.677769 0.722819 0.459191
v 1.677768 0.734942 0.449242
v 2.677769 0.734942 0.449242
v 1.677768 0.744891 0.437119
v 2.677769 0.744891 0.437119
v 1.677768 0.752284 0.423289
v 2.677769 0.752284 0.423289
v 1.677768 0.756837 0.408281
v 2.677769 0.756837 0.408281
v 1.677768 0.758374 0.392674
v 2.677769 0.758374 0.392674
v 1.677768 0.756836 0.377067
v 2.677769 0.756837 0.377067
v 1.677768 0.752284 0.362059
v 2.677769 0.752284 0.362059
v 1.677768 0.744891 0.348228
v 2.677769 0.744891 0.348228
v 1.677768 0.734942 0.336105
v 2.677769 0.734942 0.336105
v 1.677768 0.722819 0.326156
v 2.677769 0.722819 0.326156
v 1.677768 0.708988 0.318764
v 2.677769 0.708988 0.318764
v 1.677768 0.693981 0.314211
v 2.677769 0.693981 0.314211
v 0.698625 0.678374 0.295783
v 1.698625 0.678374 0.295783
v 0.698625 0.658865 0.297704
v 1.698625 0.658865 0.297704
v 0.698625 0.640105 0.303395
v 1.698625 0.640105 0.303395
v 0.698625 0.622817 0.312636
v 1.698625 0.622817 0.312636
v 0.698625 0.607663 0.325072
v 1.698625 0.607663 0.325072
v 0.698625 0.595227 0.340226
v 1.698625 0.595227 0.340226
v 0.698625 0.585986 0.357515
v 1.698625 0.585986 0.357515
v 0.698625 0.580295 0.376274
v 1.698625 0.580295 0.376274
v 0.698625 0.578374 0.395783
v 1.698625 0.578374 0.395783
v 0.698625 0.580295 0.415292
v 1.698625 0.580295 0.415292
v 0.698625 0.585986 0.434051
v 1.698625 0.585986 0.434051
v 0.698625 0.595227 0.451340
v 1.698625 0.595227 0.451340
v 0.698625 0.607663 0.466494
v 1.698625 0.607663 0.466494
v 0.698625 0.622817 0.478930
v 1.698625 0.622817 0.478930
v 0.698625 0.640105 0.488171
v 1.698625 0.640105 0.488171
v 0.698625 0.658865 0.493862
v 1.698625 0.658865 0.493862
v 0.698625 0.678374 0.495783
v 1.698625 0.678374 0.495783
v 0.698625 0.697883 0.493862
v 1.698625 0.697883 0.493862
v 0.698625 0.716642 0.488171
v 1.698625 0.716642 0.488171
v 0.698625 0.733931 0.478930
v 1.698625 0.733931 0.478930
v 0.698625 0.749084 0.466494
v 1.698625 0.749084 0.466494
v 0.698625 0.761521 0.451340
v 1.698625 0.761521 0.451340
v 0.698625 0.770762 0.434051
v 1.698625 0.770762 0.434051
v 0.698625 0.776452 0.415292
v 1.698625 0.776452 0.415292
v 0.698625 0.778374 0.395783
v 1.698625 0.778374 0.395783
v 0.698625 0.776452 0.376274
v 1.698625 0.776452 0.376274
v 0.698625 0.770762 0.357515
v 1.698625 0.770762 0.357515
v 0.698625 0.761521 0.340226
v 1.698625 0.761521 0.340226
v 0.698625 0.749084 0.325072
v 1.698625 0.749084 0.325072
v 0.698625 0.733931 0.312636
v 1.698625 0.733931 0.312636
v 0.698625 0.716642 0.303395
v 1.698625 0.716642 0.303395
v 0.698625 0.697883 0.297704
v 1.698625 0.697883 0.297704
v -1.082501 0.139256 0.600816
v -1.082501 0.939256 0.600816
v -1.082501 0.139256 0.200816
v -1.082501 0.939256 0.200816
v 0.911173 0.139256 0.600816
v 0.704749 0.804896 0.600816
v 0.911173 0.139256 0.200816
v 0.704749 0.804896 0.200816
v 0.479952 0.939256 0.200816
v 0.477171 0.939256 0.600816
v 0.846748 0.644824 0.200816
v 0.846748 0.645715 0.600816
v -0.933378 0.036635 0.202998
v -0.933378 0.136635 0.202998
v -0.933378 0.036635 -0.196818
v -0.933378 0.136635 -0.196818
v 0.932554 0.036635 0.201982
v 0.932554 0.136635 0.201982
v 0.932554 0.036635 -0.195434
v 0.932554 0.136635 -0.195434
v 0.016335 0.036635 -0.500131
v 0.036125 0.036635 0.499869
v 0.014464 0.136635 -0.500131
v 0.035249 0.136635 0.499869
v 0.000000 -0.050000 -1.000000
v 0.000000 0.050000 -1.000000
v 0.195090 -0.050000 -0.980785
v 0.195090 0.050000 -0.980785
v 0.382683 -0.050000 -0.923880
v 0.382683 0.050000 -0.923880
v 0.555570 -0.050000 -0.831470
v 0.555570 0.050000 -0.831470
v 0.707107 -0.050000 -0.707107
v 0.707107 0.050000 -0.707107
v 0.831470 -0.050000 -0.555570
v 0.831470 0.050000 -0.555570
v 0.923880 -0.050000 -0.382683
v 0.923880 0.050000 -0.382683
v 0.980785 -0.050000 -0.195090
v 0.980785 0.050000 -0.195090
v 1.000000 -0.050000 -0.000000
v 1.000000 0.050000 -0.000000
v 0.980785 -0.050000 0.195090
v 0.980785 0.050000 0.195090
v 0.923880 -0.050000 0.382683
v 0.923880 0.050000 0.382683
v 0.831470 -0.050000 0.555570
v 0.831470 0.050000 0.555570
v 0.707107 -0.050000 0.707107
v 0.707107 0.050000 0.707107
v 0.555570 -0.050000 0.831470
v 0.555570 0.050000 0.831470
v 0.382683 -0.050000 0.923880
v 0.382683 0.050000 0.923880
v 0.195090 -0.050000 0.980785
v 0.195090 0.050000 0.980785
v -0.000000 -0.050000 1.000000
v -0.000000 0.050000 1.000000
v -0.195091 -0.050000 0.980785
v -0.195091 0.050000 0.980785
v -0.382684 -0.050000 0.923879
v -0.382684 0.050000 0.923879
v -0.555571 -0.050000 0.831469
v -0.555571 0.050000 0.831469
v -0.707107 -0.050000 0.707106
v -0.707107 0.050000 0.707106
v -0.831470 -0.050000 0.555570
v -0.831470 0.050000 0.555570
v -0.923880 -0.050000 0.382683
v -0.923880 0.050000 0.382683
v -0.980785 -0.050000 0.195089
v -0.980785 0.050000 0.195089
v -1.000000 -0.050000 -0.000001
v -1.000000 0.050000 -0.000001
v -0.980785 -0.050000 -0.195091
v -0.980785 0.050000 -0.195091
v -0.923879 -0.050000 -0.382684
v -0.923879 0.050000 -0.382684
v -0.831469 -0.050000 -0.555571
v -0.831469 0.050000 -0.555571
v -0.707106 -0.050000 -0.707108
v -0.707106 0.050000 -0.707108
v -0.555569 -0.050000 -0.831470
v -0.555569 0.050000 -0.831470
v -0.382682 -0.050000 -0.923880
v -0.382682 0.050000 -0.923880
v -0.195089 -0.050000 -0.980786
v -0.195089 0.050000 -0.980786
v -1.081986 0.133095 0.200150
v -1.081986 0.940295 0.200150
v -1.081986 0.133095 -0.199850
v -1.081986 0.940295 -0.199850
v 0.915858 0.133095 0.200150
v 0.448946 0.940295 0.200150
v 0.915858 0.133095 -0.199850
v 0.448946 0.940295 -0.199850
v -1.080143 0.139256 -0.198254
v -1.080143 0.939256 -0.198254
v -1.080143 0.139256 -0.598254
v -1.080143 0.939256 -0.598254
v 0.911173 0.139256 -0.198254
v 0.704749 0.804896 -0.198254
v 0.911173 0.139256 -0.598254
v 0.704749 0.804896 -0.598254
v 0.479952 0.939256 -0.598254
v 0.477171 0.939256 -0.198254
v 0.846748 0.644824 -0.598254
v 0.846748 0.645715 -0.198254
v 0.698625 0.678374 -0.503286
v 1.698625 0.678374 -0.503286
v 0.698625 0.658865 -0.501365
v 1.698625 0.658865 -0.501365
v 0.698625 0.640105 -0.495674
v 1.698625 0.640105 -0.495674
v 0.698625 0.622817 -0.486433
v 1.698625 0.622817 -0.486433
v 0.698625 0.607663 -0.473997
v 1.698625 0.607663 -0.473997
v 0.698625 0.595227 -0.458843
v 1.698625 0.595227 -0.458843
v 0.698625 0.585986 -0.441555
v 1.698625 0.585986 -0.441555
v 0.698625 0.580295 -0.422795
v 1.698625 0.580295 -0.422795
v 0.698625 0.578374 -0.403286
v 1.698625 0.578374 -0.403286
v 0.698625 0.580295 -0.383777
v 1.698625 0.580295 -0.383777
v 0.698625 0.585986 -0.365018
v 1.698625 0.585986 -0.365018
v 0.698625 0.595227 -0.347729
v 1.698625 0.595227 -0.347729
v 0.698625 0.607663 -0.332575
v 1.698625 0.607663 -0.332575
v 0.698625 0.622817 -0.320139
v 1.698625 0.622817 -0.320139
v 0.698625 0.640105 -0.310898
v 1.698625 0.640105 -0.310898
v 0.698625 0.658865 -0.305208
v 1.698625 0.658865 -0.305208
v 0.698625 0.678374 -0.303286
v 1.698625 0.678374 -0.303286
v 0.698625 0.697883 -0.305208
v 1.698625 0.697883 -0.305208
v 0.698625 0.716642 -0.310898
v 1.698625 0.716642 -0.310898
v 0.698625 0.733931 -0.320139
v 1.698625 0.733931 -0.320139
v 0.698625 0.749085 -0.332576
v 1.698625 0.749085 -0.332576
v 0.698625 0.761521 -0.347729
v 1.698625 0.761521 -0.347729
v 0.698625 0.770762 -0.365018
v 1.698625 0.770762 -0.365018
v 0.698625 0.776452 -0.383777
v 1.698625 0.776452 -0.383777
v 0.698625 0.778374 -0.403286
v 1.698625 0.778374 -0.403286
v 0.698625 0.776452 -0.422795
v 1.698625 0.776452 -0.422795
v 0.698625 0.770762 -0.441555
v 1.698625 0.770762 -0.441555
v 0.698625 0.761521 -0.458843
v 1.698625 0.761521 -0.458843
v 0.698625 0.749084 -0.473997
v 1.698625 0.749084 -0.473997
v 0.698625 0.733931 -0.486433
v 1.698625 0.733931 -0.486433
v 0.698625 0.716642 -0.495674
v 1.698625 0.716642 -0.495674
v 0.698625 0.697883 -0.501365
v 1.698625 0.697883 -0.501365
v 1.677768 0.678374 -0.486395
v 2.677769 0.678374 -0.486395
v 1.677768 0.662767 -0.484858
v 2.677769 0.662767 -0.484858
v 1.677768 0.647759 -0.480306
v 2.677769 0.647759 -0.480306
v 1.677768 0.633928 -0.472913
v 2.677769 0.633928 -0.472913
v 1.677768 0.621805 -0.462964
v 2.677769 0.621805 -0.462964
v 1.677768 0.611856 -0.450841
v 2.677769 0.611856 -0.450841
v 1.677768 0.604463 -0.437010
v 2.677769 0.604464 -0.437010
v 1.677768 0.599911 -0.422002
v 2.677769 0.599911 -0.422002
v 1.677768 0.598374 -0.406395
v 2.677769 0.598374 -0.406395
v 1.677768 0.599911 -0.390788
v 2.677769 0.599911 -0.390788
v 1.677768 0.604463 -0.375781
v 2.677769 0.604464 -0.375781
v 1.677768 0.611856 -0.361950
v 2.677769 0.611856 -0.361950
v 1.677768 0.621805 -0.349827
v 2.677769 0.621805 -0.349827
v 1.677768 0.633928 -0.339878
v 2.677769 0.633928 -0.339878
v 1.677768 0.647759 -0.332485
v 2.677769 0.647759 -0.332485
v 1.677768 0.662767 -0.327932
v 2.677769 0.662767 -0.327932
v 1.677768 0.678374 -0.326395
v 2.677769 0.678374 -0.326395
v 1.677768 0.693981 -0.327932
v 2.677769 0.693981 -0.327932
v 1.677768 0.708988 -0.332485
v 2.677769 0.708989 -0.332485
v 1.677768 0.722819 -0.339878
v 2.677769 0.722820 -0.339878
v 1.677768 0.734942 -0.349827
v 2.677769 0.734942 -0.349827
v 1.677768 0.744891 -0.361950
v 2.677769 0.744891 -0.361950
v 1.677768 0.752284 -0.375781
v 2.677769 0.752284 -0.375781
v 1.677768 0.756837 -0.390788
v 2.677769 0.756837 -0.390788
v 1.677768 0.758374 -0.406395
v 2.677769 0.758374 -0.406395
v 1.677768 0.756837 -0.422003
v 2.677769 0.756837 -0.422003
v 1.677768 0.752284 -0.437010
v 2.677769 0.752284 -0.437010
v 1.677768 0.744891 -0.450841
v 2.677769 0.744891 -0.450841
v 1.677768 0.734942 -0.462964
v 2.677769 0.734942 -0.462964
v 1.677768 0.722819 -0.472913
v 2.677769 0.722819 -0.472913
v 1.677768 0.708988 -0.480306
v 2.677769 0.708988 -0.480306
v 1.677768 0.693981 -0.484858
v 2.677769 0.693981 -0.484858
v -1.082560 0.333860 -0.997469
v -1.082560 0.940295 -0.603104
v -1.082560 0.333860 -0.597469
v -1.082560 0.940295 -0.597469
v 0.915858 0.136297 -0.997469
v 0.448946 0.940295 -0.603104
v 0.915858 0.136297 -0.597469
v 0.448946 0.940295 -0.597469
v -0.915804 0.136297 -0.997469
v -0.928324 0.136297 -0.597469
v -1.082560 0.333860 1.003937
v -1.082560 0.940295 0.609572
v -1.082560 0.333860 0.603937
v -1.082560 0.940295 0.603937
v 0.915858 0.136297 1.003937
v 0.448946 0.940295 0.609572
v 0.915858 0.136297 0.603937
v 0.448946 0.940295 0.603937
v -0.915804 0.136297 1.003937
v -0.928324 0.136297 0.603937
vn -1.000000 0.000000 0.000000
vn 0.000000 0.000000 -1.000000
vn 1.000000 0.000000 0.000000
vn 0.000000 0.000000 1.000000
vn 0.000000 -1.000000 -0.000000
vn 0.000000 1.000000 0.000000
vn 0.000000 -0.098000 -0.995200
vn 0.000000 -0.290300 -0.956900
vn 0.000000 -0.471400 -0.881900
vn 0.000000 -0.634400 -0.773000
vn 0.000000 -0.773000 -0.634400
vn 0.000000 -0.881900 -0.471400
vn 0.000000 -0.956900 -0.290300
vn 0.000000 -0.995200 -0.098000
vn 0.000000 -0.995200 0.098000
vn 0.000000 -0.956900 0.290300
vn 0.000000 -0.881900 0.471400
vn 0.000000 -0.773000 0.634400
vn 0.000000 -0.634400 0.773000
vn 0.000000 -0.471400 0.881900
vn 0.000000 -0.290300 0.956900
vn 0.000000 -0.098000 0.995200
vn 0.000000 0.098000 0.995200
vn -0.000000 0.290300 0.956900
vn -0.000000 0.471400 0.881900
vn -0.000000 0.634400 0.773000
vn -0.000000 0.773000 0.634400
vn -0.000000 0.881900 0.471400
vn -0.000000 0.956900 0.290300
vn -0.000000 0.995200 0.098000
vn -0.000000 0.995200 -0.098000
vn -0.000000 0.956900 -0.290300
vn -0.000000 0.881900 -0.471400
vn -0.000000 0.773000 -0.634400
vn -0.000000 0.634400 -0.773000
vn -0.000000 0.471400 -0.881900
vn 0.000000 0.098000 -0.995200
vn -0.000000 0.290300 -0.956900
vn 0.992000 0.126300 -0.000100
vn 0.510700 0.859800 0.001800
vn 0.747200 0.664600 -0.000700
vn -0.304500 -0.002800 -0.952500
vn -0.292900 -0.001300 0.956100
vn 0.315200 0.001400 0.949000
vn 0.315300 0.002900 -0.949000
vn 0.098000 0.000000 -0.995200
vn 0.290300 0.000000 -0.956900
vn 0.471400 0.000000 -0.881900
vn 0.634400 0.000000 -0.773000
vn 0.773000 0.000000 -0.634400
vn 0.881900 0.000000 -0.471400
vn 0.956900 0.000000 -0.290300
vn 0.995200 0.000000 -0.098000
vn 0.995200 0.000000 0.098000
vn 0.956900 0.000000 0.290300
vn 0.881900 0.000000 0.471400
vn 0.773000 0.000000 0.634400
vn 0.634400 0.000000 0.773000
vn 0.471400 0.000000 0.881900
vn 0.290300 0.000000 0.956900
vn 0.098000 0.000000 0.995200
vn -0.098000 0.000000 0.995200
vn -0.290300 0.000000 0.956900
vn -0.471400 0.000000 0.881900
vn -0.634400 0.000000 0.773000
vn -0.773000 0.000000 0.634400
vn -0.881900 0.000000 0.471400
vn -0.956900 0.000000 0.290300
vn -0.995200 0.000000 0.098000
vn -0.995200 0.000000 -0.098000
vn -0.956900 0.000000 -0.290300
vn -0.881900 0.000000 -0.471400
vn -0.773000 0.000000 -0.634400
vn -0.634400 0.000000 -0.773000
vn -0.471400 0.000000 -0.881900
vn -0.098000 0.000000 -0.995200
vn -0.290300 0.000000 -0.956900
vn 0.865600 0.500700 0.000000
vn -0.864800 -0.502200 0.000000
vn -0.024900 -0.444400 0.895500
vn 0.776100 0.630500 0.012100
vn 0.864800 0.502200 0.000000
vn 0.024900 0.444400 0.895500
vn -0.776100 -0.630500 0.012100
usemtl None
s off
f 2//1 4//1 3//1 1//1
f 4//2 8//2 7//2 3//2
f 8//3 6//3 5//3 7//3
f 6//4 2//4 1//4 5//4
f 1//5 3//5 7//5 5//5
f 6//6 8//6 4//6 2//6
f 9//7 10//7 12//7 11//7
f 11//8 12//8 14//8 13//8
f 13//9 14//9 16//9 15//9
f 15//10 16//10 18//10 17//10
f 17//11 18//11 20//11 19//11
f 19//12 20//12 22//12 21//12
f 21//13 22//13 24//13 23//13
f 23//14 24//14 26//14 25//14
f 25//15 26//15 28//15 27//15
f 27//16 28//16 30//16 29//16
f 29//17 30//17 32//17 31//17
f 31//18 32//18 34//18 33//18
f 33//19 34//19 36//19 35//19
f 35//20 36//20 38//20 37//20
f 37//21 38//21 40//21 39//21
f 39//22 40//22 42//22 41//22
f 41//23 42//23 44//23 43//23
f 43//24 44//24 46//24 45//24
f 45//25 46//25 48//25 47//25
f 47//26 48//26 50//26 49//26
f 49//27 50//27 52//27 51//27
f 51//28 52//28 54//28 53//28
f 53//29 54//29 56//29 55//29
f 55//30 56//30 58//30 57//30
f 57//31 58//31 60//31 59//31
f 59//32 60//32 62//32 61//32
f 61//33 62//33 64//33 63//33
f 63//34 64//34 66//34 65//34
f 65//35 66//35 68//35 67//35
f 67//36 68//36 70//36 69//36
f 12//3 10//3 72//3 70//3 68//3 66//3 64//3 62//3 60//3 58//3 56//3 54//3 52//3 50//3 48//3 46//3 44//3 42//3 40//3 38//3 36//3 34//3 32//3 30//3 28//3 26//3 24//3 22//3 20//3 18//3 16//3 14//3
f 71//37 72//37 10//37 9//37
f 69//38 70//38 72//38 71//38
f 9//1 11//1 13//1 15//1 17//1 19//1 21//1 23//1 25//1 27//1 29//1 31//1 33//1 35//1 37//1 39//1 41//1 43//1 45//1 47//1 49//1 51//1 53//1 55//1 57//1 59//1 61//1 63//1 65//1 67//1 69//1 71//1
f 73//7 74//7 76//7 75//7
f 75//8 76//8 78//8 77//8
f 77//9 78//9 80//9 79//9
f 79//10 80//10 82//10 81//10
f 81//11 82//11 84//11 83//11
f 83//12 84//12 86//12 85//12
f 85//13 86//13 88//13 87//13
f 87//14 88//14 90//14 89//14
f 89//15 90//15 92//15 91//15
f 91//16 92//16 94//16 93//16
f 93//17 94//17 96//17 95//17
f 95//18 96//18 98//18 97//18
f 97//19 98//19 100//19 99//19
f 99//20 100//20 102//20 101//20
f 101//21 102//21 104//21 103//21
f 103//22 104//22 106//22 105//22
f 105//23 106//23 108//23 107//23
f 107//24 108//24 110//24 109//24
f 109//25 110//25 112//25 111//25
f 111//26 112//26 114//26 113//26
f 113//27 114//27 116//27 115//27
f 115//28 116//28 118//28 117//28
f 117//29 118//29 120//29 119//29
f 119//30 120//30 122//30 121//30
f 121//31 122//31 124//31 123//31
f 123//32 124//32 126//32 125//32
f 125//33 126//33 128//33 127//33
f 127//34 128//34 130//34 129//34
f 129//35 130//35 132//35 131//35
f 131//36 132//36 134//36 133//36
f 76//3 74//3 136//3 134//3 132//3 130//3 128//3 126//3 124//3 122//3 120//3 118//3 116//3 114//3 112//3 110//3 108//3 106//3 104//3 102//3 100//3 98//3 96//3 94//3 92//3 90//3 88//3 86//3 84//3 82//3 80//3 78//3
f 135//37 136//37 74//37 73//37
f 133//38 134//38 136//38 135//38
f 73//1 75//1 77//1 79//1 81//1 83//1 85//1 87//1 89//1 91//1 93//1 95//1 97//1 99//1 101//1 103//1 105//1 107//1 109//1 111//1 113//1 115//1 117//1 119//1 121//1 123//1 125//1 127//1 129//1 131//1 133//1 135//1
f 138//1 140//1 139//1 137//1
f 140//2 145//2 144//2 147//2 143//2 139//2
f 147//39 148//39 141//39 143//39
f 142//4 146//4 138//4 137//4 141//4 148//4
f 137//5 139//5 143//5 141//5
f 142//40 144//40 145//40 146//40
f 146//6 145//6 140//6 138//6
f 144//41 142//41 148//41 147//41
f 150//1 152//1 151//1 149//1
f 152//42 159//42 157//42 151//42
f 156//3 154//3 153//3 155//3
f 160//43 150//43 149//43 158//43
f 149//5 151//5 157//5 155//5 153//5 158//5
f 160//6 159//6 152//6 150//6
f 154//44 160//44 158//44 153//44
f 159//45 156//45 155//45 157//45
f 154//6 156//6 159//6 160//6
f 161//46 162//46 164//46 163//46
f 163//47 164//47 166//47 165//47
f 165//48 166//48 168//48 167//48
f 167//49 168//49 170//49 169//49
f 169//50 170//50 172//50 171//50
f 171//51 172//51 174//51 173//51
f 173//52 174//52 176//52 175//52
f 175//53 176//53 178//53 177//53
f 177//54 178//54 180//54 179//54
f 179//55 180//55 182//55 181//55
f 181//56 182//56 184//56 183//56
f 183//57 184//57 186//57 185//57
f 185//58 186//58 188//58 187//58
f 187//59 188//59 190//59 189//59
f 189//60 190//60 192//60 191//60
f 191//61 192//61 194//61 193//61
f 193//62 194//62 196//62 195//62
f 195//63 196//63 198//63 197//63
f 197//64 198//64 200//64 199//64
f 199//65 200//65 202//65 201//65
f 201//66 202//66 204//66 203//66
f 203//67 204//67 206//67 205//67
f 205//68 206//68 208//68 207//68
f 207//69 208//69 210//69 209//69
f 209//70 210//70 212//70 211//70
f 211//71 212//71 214//71 213//71
f 213//72 214//72 216//72 215//72
f 215//73 216//73 218//73 217//73
f 217//74 218//74 220//74 219//74
f 219//75 220//75 222//75 221//75
f 164//6 162//6 224//6 222//6 220//6 218//6 216//6 214//6 212//6 210//6 208//6 206//6 204//6 202//6 200//6 198//6 196//6 194//6 192//6 190//6 188//6 186//6 184//6 182//6 180//6 178//6 176//6 174//6 172//6 170//6 168//6 166//6
f 223//76 224//76 162//76 161//76
f 221//77 222//77 224//77 223//77
f 161//5 163//5 165//5 167//5 169//5 171//5 173//5 175//5 177//5 179//5 181//5 183//5 185//5 187//5 189//5 191//5 193//5 195//5 197//5 199//5 201//5 203//5 205//5 207//5 209//5 211//5 213//5 215//5 217//5 219//5 221//5 223//5
f 226//1 228//1 227//1 225//1
f 228//2 232//2 231//2 227//2
f 232//78 230//78 229//78 231//78
f 230//4 226//4 225//4 229//4
f 225//5 227//5 231//5 229//5
f 230//6 232//6 228//6 226//6
f 234//1 236//1 235//1 233//1
f 236//2 241//2 240//2 243//2 239//2 235//2
f 243//39 244//39 237//39 239//39
f 238//4 242//4 234//4 233//4 237//4 244//4
f 233//5 235//5 239//5 237//5
f 238//40 240//40 241//40 242//40
f 242//6 241//6 236//6 234//6
f 240//41 238//41 244//41 243//41
f 245//7 246//7 248//7 247//7
f 247//8 248//8 250//8 249//8
f 249//9 250//9 252//9 251//9
f 251//10 252//10 254//10 253//10
f 253//11 254//11 256//11 255//11
f 255//12 256//12 258//12 257//12
f 257//13 258//13 260//13 259//13
f 259//14 260//14 262//14 261//14
f 261//15 262//15 264//15 263//15
f 263//16 264//16 266//16 265//16
f 265//17 266//17 268//17 267//17
f 267//18 268//18 270//18 269//18
f 269//19 270//19 272//19 271//19
f 271//20 272//20 274//20 273//20
f 273//21 274//21 276//21 275//21
f 275//22 276//22 278//22 277//22
f 277//23 278//23 280//23 279//23
f 279//24 280//24 282//24 281//24
f 281//25 282//25 284//25 283//25
f 283//26 284//26 286//26 285//26
f 285//27 286//27 288//27 287//27
f 287//28 288//28 290//28 289//28
f 289//29 290//29 292//29 291//29
f 291//30 292//30 294//30 293//30
f 293//31 294//31 296//31 295//31
f 295//32 296//32 298//32 297//32
f 297//33 298//33 300//33 299//33
f 299//34 300//34 302//34 301//34
f 301//35 302//35 304//35 303//35
f 303//36 304//36 306//36 305//36
f 248//3 246//3 308//3 306//3 304//3 302//3 300//3 298//3 296//3 294//3 292//3 290//3 288//3 286//3 284//3 282//3 280//3 278//3 276//3 274//3 272//3 270//3 268//3 266//3 264//3 262//3 260//3 258//3 256//3 254//3 252//3 250//3
f 307//37 308//37 246//37 245//37
f 305//38 306//38 308//38 307//38
f 245//1 247//1 249//1 251//1 253//1 255//1 257//1 259//1 261//1 263//1 265//1 267//1 269//1 271//1 273//1 275//1 277//1 279//1 281//1 283//1 285//1 287//1 289//1 291//1 293//1 295//1 297//1 299//1 301//1 303//1 305//1 307//1
f 309//7 310//7 312//7 311//7
f 311//8 312//8 314//8 313//8
f 313//9 314//9 316//9 315//9
f 315//10 316//10 318//10 317//10
f 317//11 318//11 320//11 319//11
f 319//12 320//12 322//12 321//12
f 321//13 322//13 324//13 323//13
f 323//14 324//14 326//14 325//14
f 325//15 326//15 328//15 327//15
f 327//16 328//16 330//16 329//16
f 329//17 330//17 332//17 331//17
f 331//18 332//18 334//18 333//18
f 333//19 334//19 336//19 335//19
f 335//20 336//20 338//20 337//20
f 337//21 338//21 340//21 339//21
f 339//22 340//22 342//22 341//22
f 341//23 342//23 344//23 343//23
f 343//24 344//24 346//24 345//24
f 345//25 346//25 348//25 347//25
f 347//26 348//26 350//26 349//26
f 349//27 350//27 352//27 351//27
f 351//28 352//28 354//28 353//28
f 353//29 354//29 356//29 355//29
f 355//30 356//30 358//30 357//30
f 357//31 358//31 360//31 359//31
f 359//32 360//32 362//32 361//32
f 361//33 362//33 364//33 363//33
f 363//34 364//34 366//34 365//34
f 365//35 366//35 368//35 367//35
f 367//36 368//36 370//36 369//36
f 312//3 310//3 372//3 370//3 368//3 366//3 364//3 362//3 360//3 358//3 356//3 354//3 352//3 350//3 348//3 346//3 344//3 342//3 340//3 338//3 336//3 334//3 332//3 330//3 328//3 326//3 324//3 322//3 320//3 318//3 316//3 314//3
f 371//37 372//37 310//37 309//37
f 369//38 370//38 372//38 371//38
f 309//1 311//1 313//1 315//1 317//1 319//1 321//1 323//1 325//1 327//1 329//1 331//1 333//1 335//1 337//1 339//1 341//1 343//1 345//1 347//1 349//1 351//1 353//1 355//1 357//1 359//1 361//1 363//1 365//1 367//1 369//1 371//1
f 374//3 376//3 375//3 373//3
f 376//2 380//2 379//2 382//2 375//2
f 380//79 378//79 377//79 379//79
f 378//80 374//80 373//80 381//80 377//80
f 373//81 375//81 382//81 381//81
f 378//5 380//5 376//5 374//5
f 381//6 382//6 379//6 377//6
f 384//1 386//1 385//1 383//1
f 386//2 390//2 389//2 392//2 385//2
f 390//82 388//82 387//82 389//82
f 388//83 384//83 383//83 391//83 387//83
f 383//84 385//84 392//84 391//84
f 388//6 390//6 386//6 384//6
f 391//5 392//5 389//5 387//5
